<svg xmlns="http://www.w3.org/2000/svg" width="129" height="42" viewBox="0 0 129 42">
  <path fill="#FFF" fill-rule="evenodd" d="M20.8826129 0C32.4169236 0 41.766573 9.40190323 41.766573 21.0006774 41.766573 32.5994516 32.4169236 42 20.8826129 42 9.34964947 42 7.10542736e-15 32.5994516 7.10542736e-15 21.0006774 7.10542736e-15 9.40190323 9.34964947 0 20.8826129 0zM20.819963 1.94622581C10.364173 1.94622581 1.88825329 10.4701935 1.88825329 20.9837419 1.88825329 31.4986452 10.364173 40.0212581 20.819963 40.0212581 31.275753 40.0212581 39.7509991 31.4986452 39.7509991 20.9837419 39.7509991 10.4701935 31.275753 1.94622581 20.819963 1.94622581zM26.9428079 12.7354839L36.0566783 27.4036452 32.6163253 27.4036452 30.7934165 24.4704194 25.4681784 24.4704194 27.2904136 21.537871 28.9711813 21.537871 26.9428079 18.2720323 21.2665959 27.4036452 6.12553949 27.4036452 9.77203078 21.537871 7.09560184 21.537871 8.91716334 18.6039677 20.6178667 18.6039677 18.7942842 21.537871 13.2137311 21.537871 11.3901487 24.4704194 19.6498253 24.4704194 26.9428079 12.7354839zM24.5641342 12.7354839L22.741899 15.6693871 10.7393985 15.6693871 12.562981 12.7354839 24.5641342 12.7354839zM85.1925874 21.7333618C85.2837619 21.7400811 85.36164 21.8053541 85.3853834 21.8917449 85.3853834 21.8917449 90.581376 38.8224189 90.581376 38.8521758 90.581376 38.9366468 90.5120454 39 90.4303683 39L84.4612926 39C84.4119064 38.9856015 84.377716 38.9366468 84.3653695 38.8857722L83.6426222 36.600256C83.6179291 36.5465017 83.5675932 36.5033063 83.5049108 36.4994667L77.9090804 36.5033063C77.846398 36.506186 77.7941626 36.5465017 77.771369 36.600256L77.0647672 38.8857722C77.0524207 38.9366468 77.0182303 38.9827218 76.9688441 38.9990401L70.9009961 39C70.819319 39 70.7518879 38.9318473 70.7518879 38.8483362 70.7518879 38.8166596 75.8225156 21.8888652 75.8225156 21.8888652 75.8481584 21.8053541 75.9241371 21.7429608 76.0162613 21.7333618L85.1925874 21.7333618zM53.8703729 21.7324019C53.895066 21.7362415 53.9178596 21.759279 53.9197591 21.787116L53.9197591 21.787116 55.2246931 26.2420009C55.2294417 26.2717577 55.2522353 26.2928754 55.2826268 26.2928754 55.3158675 26.2928754 55.3358119 26.2717577 55.3415103 26.2324019 55.3434098 26.2324019 56.5733148 21.7736775 56.5733148 21.7736775 56.5847116 21.7535196 56.5989576 21.7372014 56.618902 21.7333618L56.618902 21.7333618 63.617489 21.7333618C63.6507297 21.7333618 63.6716238 21.7621587 63.6773222 21.7899957L63.6773222 21.7899957 65.050637 26.2333618C65.054436 26.2631186 65.0819782 26.2947952 65.1123697 26.2947952 65.1456104 26.2947952 65.1627056 26.2717577 65.1722029 26.2343217 65.1750521 26.2324019 66.483785 21.7957551 66.483785 21.7947952 66.4894834 21.7602389 66.5103776 21.7333618 66.5436183 21.7333618L66.5436183 21.7333618 72.8783414 21.7333618C72.9220292 21.7372014 72.9514709 21.7880759 72.9514709 21.8351109 72.9514709 21.8523891 67.8077137 38.9164889 67.8077137 38.9164889 67.7934677 38.9654437 67.7630762 38.9990401 67.7184387 38.9990401L67.7184387 38.9990401 62.0637248 39C62.0285847 39 61.9981932 38.9750427 61.9886959 38.9443259L61.9886959 38.9443259 60.0835302 32.5696459C60.0740329 32.5360495 60.0540885 32.5101323 60.0208478 32.5101323 59.9876071 32.5101323 59.9771601 32.5322099 59.9629141 32.5725256 59.9629141 32.5725256 58.0112115 38.9164889 58.0112115 38.9184087 57.9998147 38.9558447 57.966574 38.9971203 57.9323836 39L57.9323836 39 52.3223072 39C52.2767199 39 52.2463285 38.9673635 52.230183 38.9184087 52.230183 38.9107295 47.0151957 21.8639078 47.0151957 21.8639078L47.0128214 21.852989 47.0128214 21.852989 47.0104471 21.834151C47.0104471 21.7775171 47.0560343 21.7333618 47.1120686 21.7333618L47.1120686 21.7333618zM129 21.7324019L129 27.3314846 120.554969 27.3314846C120.485638 27.3506826 120.44385 27.421715 120.44385 27.496587 120.44385 27.5474616 120.467593 27.5935367 120.504633 27.6242534 120.806648 27.9458191 122.267338 29.5056527 122.633936 29.9548848 123.04517 30.4540316 124.004401 31.5435154 124.004401 33.6706485 124.004401 35.7977816 122.873268 37.0830845 122.535163 37.4267278 122.196108 37.7703712 120.951957 38.9971203 118.719134 38.9971203L105.633704 38.9990401C105.633704 38.9990401 103.598425 38.9558447 102.370419 37.6993387L98.9076905 34.1870734C98.9076905 34.1870734 98.781376 34.0997227 98.781376 34.1870734L98.781376 38.9990401 92.1341904 38.9990401C92.0810053 38.9990401 92.0316192 38.9558447 92.0335186 38.9011305L92.0330352 38.7974836C92.0298885 37.3726523 92.0316192 21.7362415 92.0316192 21.7362415L103.967871 21.7362415C103.967871 21.7362415 106.113319 21.778477 107.810493 23.2634386 109.505768 24.7493601 109.647278 26.4454991 109.647278 27.4025171 109.647278 28.359535 109.449734 30.1449445 107.797197 31.4446459 107.797197 31.4446459 107.017466 32.0580205 106.635673 32.2442406 106.635673 32.2442406 106.509358 32.3104735 106.509358 32.4141425 106.509358 32.4736561 106.581538 32.8816126 107.596803 32.887372L115.963007 32.8854522C116.078874 32.8854522 116.171948 32.793302 116.171948 32.6761945 116.171948 32.6224403 116.151054 32.5744454 116.116864 32.5379693 116.116864 32.5379693 114.622933 30.9867747 114.02745 30.2447739 114.02745 30.2447739 112.868775 28.7444539 112.868775 26.8169795 112.868775 24.8885452 114.057841 23.4890145 114.876511 22.87468 115.696132 22.2603456 117.121682 21.7324019 118.139796 21.7324019L129 21.7324019zM80.7649293 27.075192C80.7478341 27.075192 80.7421357 27.0790316 80.6946491 27.244134 80.6946491 27.244134 79.3621728 31.575192 79.3621728 31.6097483 79.3621728 31.7057381 79.4277044 31.8055674 79.5150799 31.8055674L82.0157285 31.8055674C82.0964559 31.8055674 82.1676859 31.7057381 82.1676859 31.6107082 82.1676859 31.575192 80.8352096 27.244134 80.8352096 27.244134 80.787723 27.0790316 80.7858235 27.075192 80.7649293 27.075192zM102.370419 26.6163609L98.9504285 26.6163609C98.9504285 26.6163609 98.8507065 26.6451578 98.8507065 26.7603456L98.8545054 28.6619027C98.8545054 28.7761305 98.9542275 28.8030077 98.9542275 28.8030077L102.681932 28.8010879C102.681932 28.8010879 103.571832 28.6743814 103.571832 27.7461604 103.571832 26.8169795 102.765508 26.6163609 102.370419 26.6163609zM98.6474635 3C98.7386379 3.00479949 98.8136669 3.06623294 98.8393097 3.15166382 98.8393097 3.15166382 104.04195 20.0900171 104.04195 20.1178541 104.04195 20.203285 103.974519 20.2666382 103.891893 20.2666382L102.799893 20.2669887C101.077055 20.2675426 97.921867 20.268558 97.921867 20.268558 97.8734306 20.2512799 97.8382905 20.203285 97.8240445 20.1514505L97.1022469 17.868814C97.0785036 17.8140998 97.0281677 17.774744 96.9645356 17.7709044L91.3706046 17.7709044C91.3088719 17.774744 91.2537874 17.81218 91.230044 17.8668942L90.5253417 20.1514505C90.5139449 20.203285 90.4769053 20.2512799 90.4284688 20.268558L84.3625203 20.2666382C84.2789437 20.2666382 84.2096132 20.2013652 84.2096132 20.1140145 84.2096132 20.0823379 89.2802409 3.15070392 89.2802409 3.15070392 89.3039842 3.06431314 89.3780635 3.00479949 89.4711374 3L98.6474635 3zM120.947209 4.53391638C122.642483 6.01887799 122.783994 7.71405717 122.783994 8.67011519 122.783994 9.628093 122.585499 11.4144625 120.932013 12.7132039 120.932013 12.7132039 120.155131 13.3275384 119.775237 13.5118387 119.775237 13.5118387 119.646074 13.5790316 119.646074 13.6855802 119.646074 13.7402944 119.716354 14.1501706 120.734468 14.15593L128.987653 14.15593 128.987653 20.2666382 118.770419 20.2666382C118.770419 20.2666382 116.73514 20.2244027 115.505235 18.9688567L112.045356 15.4546715C112.045356 15.4546715 111.916192 15.3682807 111.916192 15.4546715L111.916192 20.2666382 110.87935 20.2669382C109.012856 20.2674781 105.278978 20.268558 105.271855 20.268558 105.215821 20.268558 105.168334 20.2244027 105.168334 20.1687287L105.168334 3 117.102687 3C117.102687 3 119.251934 3.04799488 120.947209 4.53391638zM86.595344 3L86.595344 8.62883959 79.2197128 8.62883959 79.2197128 20.2666382 73.1433171 20.2666382 73.1433171 8.59908276 65.2415335 8.59908276C65.1741024 8.61924061 65.1304146 8.69027304 65.1304146 8.76514505 65.1304146 8.81601962 65.1532082 8.86113481 65.1892981 8.89185154 65.4913134 9.21437713 66.9539032 10.7665316 67.3186009 11.2148038 67.7298355 11.7129906 68.6909659 12.8130333 68.6909659 14.9411263 68.6909659 17.0682594 67.5598332 18.3535623 67.2217281 18.6972056 66.8817234 19.040849 65.6394719 20.2666382 63.4056984 20.2666382L47 20.2666382 47 14.165529 60.6505212 14.165529C60.765439 14.165529 60.8594626 14.071459 60.8594626 13.9562713 60.8594626 13.9025171 60.8376187 13.8535623 60.804378 13.8161263 60.804378 13.8161263 59.3066481 12.2553328 58.7149641 11.5142918 58.7149641 11.5142918 57.5534399 10.0139718 57.5534399 8.08649744 57.5534399 6.15710324 58.7444058 4.75757253 59.5611767 4.14323805 60.3807968 3.52986348 61.8082465 3 62.8273106 3L86.595344 3zM94.2255038 8.3418302C94.2169562 8.3418302 94.2008107 8.34662969 94.1542738 8.50981229 94.1542738 8.50981229 92.8246467 12.8418302 92.8246467 12.8773464 92.8246467 12.9723763 92.8825805 13.0731655 92.9756544 13.0731655L95.4744035 13.0731655C95.5665277 13.0731655 95.6263609 12.9723763 95.6263609 12.8773464 95.6263609 12.8418302 94.2967338 8.50981229 94.2967338 8.50981229 94.2501969 8.34662969 94.2340514 8.3418302 94.2255038 8.3418302zM115.505235 7.88491894L112.087144 7.88491894C112.087144 7.88491894 111.986472 7.91371587 111.986472 8.02986348L111.99217 9.92854096C111.99217 10.0446886 112.090943 10.0725256 112.090943 10.0725256L115.818647 10.0696459C115.818647 10.0696459 116.706648 9.94197952 116.706648 9.01279863 116.706648 8.08649744 115.905073 7.88491894 115.505235 7.88491894z"/>
</svg>
